<?xml version="1.0" encoding="utf-8"?>
<!-- Generator: Adobe Illustrator 16.0.0, SVG Export Plug-In . SVG Version: 6.00 Build 0)  -->
<!DOCTYPE svg PUBLIC "-//W3C//DTD SVG 1.1//EN" "http://www.w3.org/Graphics/SVG/1.1/DTD/svg11.dtd">
<svg version="1.1" xmlns="http://www.w3.org/2000/svg" xmlns:xlink="http://www.w3.org/1999/xlink" x="0px" y="0px"
	 width="284.985px" height="272.654px" viewBox="0 0 284.985 272.654" enable-background="new 0 0 284.985 272.654"
	 xml:space="preserve">
<g id="Layer_1">
	<circle fill="#005CA8" cx="143.033" cy="135.958" r="133.302"/>
</g>
<g id="Layer_2">
	<text transform="matrix(1 0 0 1 412.7852 112.9741)" fill="#005CA8" font-family="'Montserrat-Regular'" font-size="12">Aipo</text>
	<circle fill="#005CA8" cx="428.654" cy="194.641" r="28.347"/>
	<text transform="matrix(1 0 0 1 403.3076 241.9746)" fill="#005CA8" font-family="'Montserrat-Regular'" font-size="12">Sésamo</text>
	<circle fill="#005CA8" cx="428.654" cy="323.641" r="28.347"/>
	<text transform="matrix(1 0 0 1 400.3076 370.9746)" fill="#005CA8" font-family="'Montserrat-Regular'" font-size="12">Moluscos</text>
	<path fill="#FFFFFF" d="M426.626,196.655c0,0-6.627,0.13-11.521,5.024c-4.087,4.087-0.529,7.025-0.529,7.025
		s2.939,3.558,7.026-0.529C426.496,203.282,426.626,196.655,426.626,196.655z"/>
	<path fill="#FFFFFF" d="M442.737,180.544c0,0-6.626,0.13-11.521,5.024c-4.087,4.086-0.529,7.025-0.529,7.025
		s2.939,3.558,7.025-0.529C442.607,187.17,442.737,180.544,442.737,180.544z"/>
	<path fill="#FFFFFF" d="M425.926,179.829c0,0-6.627,0.129-11.521,5.023c-4.087,4.087-0.528,7.027-0.528,7.027
		s2.938,3.557,7.025-0.531C425.795,186.455,425.926,179.829,425.926,179.829z"/>
	<path fill="#FFFFFF" d="M431.933,202.38c-4.087,4.087-0.529,7.026-0.529,7.026s2.938,3.557,7.025-0.53
		c4.895-4.894,5.024-11.521,5.024-11.521S436.826,197.486,431.933,202.38z"/>
	<g>
		<g>
			<path fill="#FFFFFF" d="M422.58,335.973c3.992,0,5.626-1.634,3.63-3.63s-5.264-1.996-7.261,0
				C416.953,334.339,418.586,335.973,422.58,335.973z"/>
			<path fill="none" stroke="#065DA8" stroke-width="1" stroke-linecap="round" stroke-linejoin="round" stroke-miterlimit="10" d="
				M422.58,335.973c3.992,0,5.626-1.634,3.63-3.63s-5.264-1.996-7.261,0C416.953,334.339,418.586,335.973,422.58,335.973z"/>
		</g>
		<g>
			<path fill="#FFFFFF" d="M434.729,335.973c-3.992,0-5.626-1.634-3.63-3.63s5.264-1.996,7.261,0
				C440.355,334.339,438.723,335.973,434.729,335.973z"/>
			<path fill="none" stroke="#065DA8" stroke-width="1" stroke-linecap="round" stroke-linejoin="round" stroke-miterlimit="10" d="
				M434.729,335.973c-3.992,0-5.626-1.634-3.63-3.63s5.264-1.996,7.261,0C440.355,334.339,438.723,335.973,434.729,335.973z"/>
		</g>
		<g>
			<path fill="#FFFFFF" d="M446.311,316.105c-1.159-0.327-2.375-1.544-2.701-2.703c-0.327-1.159-1.58-2.069-2.783-2.021
				s-2.736-0.732-3.405-1.734c-0.669-1.003-2.142-1.48-3.271-1.063s-2.829,0.148-3.774-0.599c-0.946-0.746-2.495-0.746-3.441,0
				c-0.945,0.747-2.645,1.016-3.775,0.599c-1.13-0.417-2.602,0.061-3.271,1.063c-0.669,1.002-2.201,1.782-3.405,1.734
				s-2.457,0.862-2.783,2.021s-1.543,2.376-2.703,2.703c-1.159,0.326-2.069,1.575-2.021,2.774s4.495,6.589,9.883,11.978
				c5.389,5.388,14.205,5.388,19.594,0c5.388-5.389,9.835-10.778,9.882-11.978S447.471,316.432,446.311,316.105z"/>
			<path fill="none" stroke="#065DA8" stroke-width="1" stroke-linecap="round" stroke-linejoin="round" stroke-miterlimit="10" d="
				M446.311,316.105c-1.159-0.327-2.375-1.544-2.701-2.703c-0.327-1.159-1.58-2.069-2.783-2.021s-2.736-0.732-3.405-1.734
				c-0.669-1.003-2.142-1.48-3.271-1.063s-2.829,0.148-3.774-0.599c-0.946-0.746-2.495-0.746-3.441,0
				c-0.945,0.747-2.645,1.016-3.775,0.599c-1.13-0.417-2.602,0.061-3.271,1.063c-0.669,1.002-2.201,1.782-3.405,1.734
				s-2.457,0.862-2.783,2.021s-1.543,2.376-2.703,2.703c-1.159,0.326-2.069,1.575-2.021,2.774s4.495,6.589,9.883,11.978
				c5.389,5.388,14.205,5.388,19.594,0c5.388-5.389,9.835-10.778,9.882-11.978S447.471,316.432,446.311,316.105z"/>
		</g>
		
			<line fill="none" stroke="#065DA8" stroke-width="1" stroke-linecap="round" stroke-linejoin="round" stroke-miterlimit="10" x1="428.654" y1="336.449" x2="428.654" y2="307.551"/>
		
			<line fill="none" stroke="#065DA8" stroke-width="1" stroke-linecap="round" stroke-linejoin="round" stroke-miterlimit="10" x1="428.654" y1="336.449" x2="421.328" y2="308.666"/>
		
			<line fill="none" stroke="#065DA8" stroke-width="1" stroke-linecap="round" stroke-linejoin="round" stroke-miterlimit="10" x1="428.654" y1="336.449" x2="414.693" y2="312.017"/>
		
			<line fill="none" stroke="#065DA8" stroke-width="1" stroke-linecap="round" stroke-linejoin="round" stroke-miterlimit="10" x1="428.654" y1="336.449" x2="409.55" y2="317.359"/>
		
			<line fill="none" stroke="#065DA8" stroke-width="1" stroke-linecap="round" stroke-linejoin="round" stroke-miterlimit="10" x1="428.654" y1="336.449" x2="435.981" y2="308.666"/>
		
			<line fill="none" stroke="#065DA8" stroke-width="1" stroke-linecap="round" stroke-linejoin="round" stroke-miterlimit="10" x1="428.654" y1="336.449" x2="442.615" y2="312.017"/>
		
			<line fill="none" stroke="#065DA8" stroke-width="1" stroke-linecap="round" stroke-linejoin="round" stroke-miterlimit="10" x1="428.654" y1="336.449" x2="447.76" y2="317.359"/>
	</g>
	<g>
		<path fill="none" stroke="#FFFFFF" stroke-width="3.2446" stroke-miterlimit="10" d="M164.074,117.808
			c-5.97,3.439-13.926,7.295-13.926,20.903c0,56.334,0,60.747,0,60.747l0,0c0,3.132-2.538,5.67-5.669,5.67h-3.973
			c-3.131,0-5.669-2.538-5.669-5.67l0,0c0,0,0-4.413,0-60.747c0-13.607-7.956-17.463-13.926-20.903"/>
		<path fill="none" stroke="#FFFFFF" stroke-width="3.2446" stroke-miterlimit="10" d="M142.493,204.781c0,0,0-30.637,0-86.973"/>
		
			<path fill="#FFFFFF" stroke="#005CA8" stroke-width="3.2446" stroke-linecap="round" stroke-linejoin="round" stroke-miterlimit="10" d="
			M197.423,104.128c-1.318-2.273-3.061-4.255-5.061-5.932c0.241-2.621,0.042-5.272-0.64-7.833c-2.561-0.685-5.219-0.884-7.839-0.644
			c-1.677-2.004-3.653-3.743-5.929-5.062c-2.274,1.318-4.258,3.059-5.932,5.062c-2.623-0.239-5.271-0.041-7.835,0.644
			c-0.682,2.56-0.885,5.212-0.644,7.834c-2.003,1.678-3.742,3.657-5.061,5.93c1.318,2.275,3.058,4.252,5.063,5.93
			c-0.244,2.621-0.038,5.276,0.644,7.837c2.561,0.681,5.212,0.881,7.836,0.639c1.673,2.004,3.653,3.742,5.928,5.062
			c2.272-1.32,4.249-3.058,5.929-5.062c2.62,0.242,5.275,0.042,7.833-0.639c0.684-2.562,0.884-5.217,0.646-7.837
			C194.362,108.38,196.104,106.403,197.423,104.128z"/>
		<path fill="none" stroke="#FFFFFF" stroke-width="3.2446" stroke-miterlimit="10" d="M160.297,111.571
			c-5.973,3.439-13.929,7.295-13.929,20.903c0,56.337,0,72.308,0,72.308v-11.562"/>
		
			<path fill="#FFFFFF" stroke="#005CA8" stroke-width="3.2446" stroke-linecap="round" stroke-linejoin="round" stroke-miterlimit="10" d="
			M186.298,90.736c-1.888-1.825-4.106-3.252-6.489-4.315c-0.484-2.587-1.406-5.084-2.763-7.36c-2.648,0.047-5.26,0.58-7.715,1.532
			c-2.158-1.468-4.541-2.598-7.089-3.241c-1.824,1.888-3.257,4.105-4.318,6.492c-2.582,0.486-5.079,1.405-7.357,2.763
			c0.045,2.649,0.58,5.256,1.53,7.712c-1.47,2.161-2.598,4.541-3.241,7.091c1.892,1.824,4.104,3.251,6.492,4.314
			c0.488,2.585,1.407,5.085,2.764,7.36c2.648-0.044,5.256-0.58,7.712-1.533c2.161,1.472,4.544,2.601,7.091,3.244
			c1.825-1.892,3.248-4.104,4.315-6.494c2.586-0.485,5.083-1.404,7.357-2.763c-0.044-2.647-0.576-5.256-1.527-7.712
			C184.523,95.665,185.658,93.287,186.298,90.736z"/>
		
			<path fill="#FFFFFF" stroke="#005CA8" stroke-width="3.2446" stroke-linecap="round" stroke-linejoin="round" stroke-miterlimit="10" d="
			M87.563,104.128c1.318-2.273,3.061-4.255,5.06-5.932c-0.241-2.621-0.041-5.272,0.643-7.833c2.557-0.685,5.212-0.884,7.836-0.644
			c1.676-2.004,3.653-3.743,5.929-5.062c2.274,1.318,4.258,3.059,5.932,5.062c2.623-0.239,5.271-0.041,7.835,0.644
			c0.682,2.56,0.881,5.212,0.641,7.834c2.006,1.678,3.745,3.657,5.06,5.93c-1.314,2.275-3.054,4.252-5.062,5.93
			c0.243,2.621,0.041,5.276-0.641,7.837c-2.561,0.681-5.212,0.881-7.836,0.639c-1.673,2.004-3.653,3.742-5.928,5.062
			c-2.272-1.32-4.25-3.058-5.929-5.062c-2.624,0.242-5.275,0.042-7.833-0.639c-0.685-2.562-0.884-5.217-0.646-7.837
			C90.624,108.38,88.882,106.403,87.563,104.128z"/>
		<path fill="none" stroke="#FFFFFF" stroke-width="3.2446" stroke-miterlimit="10" d="M124.689,111.571
			c5.973,3.439,13.929,7.295,13.929,20.903c0,56.337,0,72.308,0,72.308v-11.562"/>
		
			<path fill="#FFFFFF" stroke="#005CA8" stroke-width="3.2446" stroke-linecap="round" stroke-linejoin="round" stroke-miterlimit="10" d="
			M98.685,90.736c1.892-1.825,4.109-3.252,6.493-4.315c0.484-2.587,1.406-5.084,2.763-7.36c2.648,0.047,5.26,0.58,7.715,1.532
			c2.158-1.468,4.541-2.598,7.089-3.241c1.824,1.888,3.257,4.105,4.315,6.492c2.588,0.486,5.082,1.405,7.36,2.763
			c-0.045,2.649-0.58,5.256-1.53,7.712c1.467,2.161,2.598,4.541,3.241,7.091c-1.892,1.824-4.106,3.251-6.492,4.314
			c-0.488,2.585-1.407,5.085-2.764,7.36c-2.651-0.044-5.256-0.58-7.715-1.533c-2.158,1.472-4.541,2.601-7.088,3.244
			c-1.825-1.892-3.248-4.104-4.315-6.494c-2.586-0.485-5.083-1.404-7.357-2.763c0.044-2.647,0.58-5.256,1.527-7.712
			C100.462,95.665,99.328,93.287,98.685,90.736z"/>
		
			<path fill="#FFFFFF" stroke="#005CA8" stroke-width="3.2446" stroke-linecap="round" stroke-linejoin="round" stroke-miterlimit="10" d="
			M161.957,77.351c-1.312-2.273-3.054-4.254-5.06-5.932c0.244-2.62,0.041-5.272-0.637-7.833c-2.563-0.685-5.216-0.884-7.839-0.643
			c-1.677-2.004-3.653-3.744-5.932-5.062c-2.275,1.318-4.252,3.06-5.932,5.062c-2.617-0.239-5.27-0.042-7.833,0.643
			c-0.685,2.56-0.884,5.212-0.643,7.836c-2,1.676-3.742,3.655-5.058,5.928c1.315,2.276,3.058,4.252,5.058,5.93
			c-0.241,2.621-0.035,5.276,0.643,7.837c2.563,0.681,5.216,0.881,7.839,0.639c1.674,2.004,3.653,3.744,5.926,5.062
			c2.274-1.318,4.255-3.058,5.932-5.062c2.623,0.242,5.275,0.042,7.835-0.639c0.682-2.562,0.881-5.217,0.641-7.837
			C158.903,81.603,160.646,79.627,161.957,77.351z"/>
		
			<path fill="#FFFFFF" stroke="#005CA8" stroke-width="3.2446" stroke-linecap="round" stroke-linejoin="round" stroke-miterlimit="10" d="
			M161.957,98.34c-1.312-2.273-3.054-4.255-5.06-5.931c0.244-2.621,0.041-5.274-0.637-7.833c-2.563-0.684-5.216-0.884-7.839-0.643
			c-1.677-2.006-3.653-3.744-5.932-5.062c-2.275,1.318-4.252,3.059-5.932,5.062c-2.617-0.239-5.27-0.041-7.833,0.643
			c-0.685,2.559-0.884,5.212-0.643,7.834c-2,1.678-3.742,3.656-5.058,5.93c1.315,2.275,3.058,4.252,5.058,5.928
			c-0.241,2.622-0.035,5.276,0.643,7.839c2.563,0.681,5.216,0.881,7.839,0.638c1.674,2.004,3.653,3.742,5.926,5.062
			c2.274-1.32,4.255-3.058,5.932-5.062c2.623,0.243,5.275,0.043,7.835-0.638c0.682-2.563,0.881-5.217,0.641-7.839
			C158.903,102.593,160.646,100.615,161.957,98.34z"/>
	</g>
</g>
</svg>
