<?xml version="1.0" encoding="utf-8"?>
<!-- Generator: Adobe Illustrator 16.0.0, SVG Export Plug-In . SVG Version: 6.00 Build 0)  -->
<!DOCTYPE svg PUBLIC "-//W3C//DTD SVG 1.1//EN" "http://www.w3.org/Graphics/SVG/1.1/DTD/svg11.dtd">
<svg version="1.1" xmlns="http://www.w3.org/2000/svg" xmlns:xlink="http://www.w3.org/1999/xlink" x="0px" y="0px"
	 width="284.985px" height="272.654px" viewBox="0 0 284.985 272.654" enable-background="new 0 0 284.985 272.654"
	 xml:space="preserve">
<g id="Layer_1">
	<circle fill="#005CA8" cx="143.033" cy="135.958" r="133.302"/>
</g>
<g id="Layer_2">
	<text transform="matrix(1 0 0 1 412.7852 112.9741)" fill="#005CA8" font-family="'Montserrat-Regular'" font-size="12">Aipo</text>
	<text transform="matrix(1 0 0 1 403.3076 241.9746)" fill="#005CA8" font-family="'Montserrat-Regular'" font-size="12">Sésamo</text>
	<circle fill="#005CA8" cx="428.654" cy="323.641" r="28.347"/>
	<text transform="matrix(1 0 0 1 400.3076 370.9746)" fill="#005CA8" font-family="'Montserrat-Regular'" font-size="12">Moluscos</text>
	<path fill="#FFFFFF" d="M426.626,196.655c0,0-6.627,0.13-11.521,5.024c-4.087,4.087-0.529,7.025-0.529,7.025
		s2.939,3.558,7.026-0.529C426.496,203.282,426.626,196.655,426.626,196.655z"/>
	<path fill="#FFFFFF" d="M442.737,180.544c0,0-6.626,0.13-11.521,5.024c-4.087,4.086-0.529,7.025-0.529,7.025
		s2.939,3.558,7.025-0.529C442.607,187.17,442.737,180.544,442.737,180.544z"/>
	<path fill="#FFFFFF" d="M425.926,179.829c0,0-6.627,0.129-11.521,5.023c-4.087,4.087-0.528,7.027-0.528,7.027
		s2.938,3.557,7.025-0.531C425.795,186.455,425.926,179.829,425.926,179.829z"/>
	<path fill="#FFFFFF" d="M431.933,202.38c-4.087,4.087-0.529,7.026-0.529,7.026s2.938,3.557,7.025-0.53
		c4.895-4.894,5.024-11.521,5.024-11.521S436.826,197.486,431.933,202.38z"/>
	<g>
		<g>
			<path fill="#FFFFFF" d="M422.58,335.973c3.992,0,5.626-1.634,3.63-3.63s-5.264-1.996-7.261,0
				C416.953,334.339,418.586,335.973,422.58,335.973z"/>
			<path fill="none" stroke="#065DA8" stroke-width="1" stroke-linecap="round" stroke-linejoin="round" stroke-miterlimit="10" d="
				M422.58,335.973c3.992,0,5.626-1.634,3.63-3.63s-5.264-1.996-7.261,0C416.953,334.339,418.586,335.973,422.58,335.973z"/>
		</g>
		<g>
			<path fill="#FFFFFF" d="M434.729,335.973c-3.992,0-5.626-1.634-3.63-3.63s5.264-1.996,7.261,0
				C440.355,334.339,438.723,335.973,434.729,335.973z"/>
			<path fill="none" stroke="#065DA8" stroke-width="1" stroke-linecap="round" stroke-linejoin="round" stroke-miterlimit="10" d="
				M434.729,335.973c-3.992,0-5.626-1.634-3.63-3.63s5.264-1.996,7.261,0C440.355,334.339,438.723,335.973,434.729,335.973z"/>
		</g>
		<g>
			<path fill="#FFFFFF" d="M446.311,316.105c-1.159-0.327-2.375-1.544-2.701-2.703c-0.327-1.159-1.58-2.069-2.783-2.021
				s-2.736-0.732-3.405-1.734c-0.669-1.003-2.142-1.48-3.271-1.063s-2.829,0.148-3.774-0.599c-0.946-0.746-2.495-0.746-3.441,0
				c-0.945,0.747-2.645,1.016-3.775,0.599c-1.13-0.417-2.602,0.061-3.271,1.063c-0.669,1.002-2.201,1.782-3.405,1.734
				s-2.457,0.862-2.783,2.021s-1.543,2.376-2.703,2.703c-1.159,0.326-2.069,1.575-2.021,2.774s4.495,6.589,9.883,11.978
				c5.389,5.388,14.205,5.388,19.594,0c5.388-5.389,9.835-10.778,9.882-11.978S447.471,316.432,446.311,316.105z"/>
			<path fill="none" stroke="#065DA8" stroke-width="1" stroke-linecap="round" stroke-linejoin="round" stroke-miterlimit="10" d="
				M446.311,316.105c-1.159-0.327-2.375-1.544-2.701-2.703c-0.327-1.159-1.58-2.069-2.783-2.021s-2.736-0.732-3.405-1.734
				c-0.669-1.003-2.142-1.48-3.271-1.063s-2.829,0.148-3.774-0.599c-0.946-0.746-2.495-0.746-3.441,0
				c-0.945,0.747-2.645,1.016-3.775,0.599c-1.13-0.417-2.602,0.061-3.271,1.063c-0.669,1.002-2.201,1.782-3.405,1.734
				s-2.457,0.862-2.783,2.021s-1.543,2.376-2.703,2.703c-1.159,0.326-2.069,1.575-2.021,2.774s4.495,6.589,9.883,11.978
				c5.389,5.388,14.205,5.388,19.594,0c5.388-5.389,9.835-10.778,9.882-11.978S447.471,316.432,446.311,316.105z"/>
		</g>
		
			<line fill="none" stroke="#065DA8" stroke-width="1" stroke-linecap="round" stroke-linejoin="round" stroke-miterlimit="10" x1="428.654" y1="336.449" x2="428.654" y2="307.551"/>
		
			<line fill="none" stroke="#065DA8" stroke-width="1" stroke-linecap="round" stroke-linejoin="round" stroke-miterlimit="10" x1="428.654" y1="336.449" x2="421.328" y2="308.666"/>
		
			<line fill="none" stroke="#065DA8" stroke-width="1" stroke-linecap="round" stroke-linejoin="round" stroke-miterlimit="10" x1="428.654" y1="336.449" x2="414.693" y2="312.017"/>
		
			<line fill="none" stroke="#065DA8" stroke-width="1" stroke-linecap="round" stroke-linejoin="round" stroke-miterlimit="10" x1="428.654" y1="336.449" x2="409.55" y2="317.359"/>
		
			<line fill="none" stroke="#065DA8" stroke-width="1" stroke-linecap="round" stroke-linejoin="round" stroke-miterlimit="10" x1="428.654" y1="336.449" x2="435.981" y2="308.666"/>
		
			<line fill="none" stroke="#065DA8" stroke-width="1" stroke-linecap="round" stroke-linejoin="round" stroke-miterlimit="10" x1="428.654" y1="336.449" x2="442.615" y2="312.017"/>
		
			<line fill="none" stroke="#065DA8" stroke-width="1" stroke-linecap="round" stroke-linejoin="round" stroke-miterlimit="10" x1="428.654" y1="336.449" x2="447.76" y2="317.359"/>
	</g>
	<path fill="#FFFFFF" d="M138.756,139.087c0,0-21.465,0.421-37.314,16.274c-13.237,13.237-1.714,22.755-1.714,22.755
		s9.521,11.523,22.758-1.714C138.335,160.551,138.756,139.087,138.756,139.087z"/>
	<path fill="#FFFFFF" d="M190.939,86.903c0,0-21.461,0.42-37.314,16.274c-13.237,13.234-1.714,22.754-1.714,22.754
		s9.521,11.523,22.755-1.714C190.519,108.364,190.939,86.903,190.939,86.903z"/>
	<path fill="#FFFFFF" d="M136.488,84.586c0,0-21.465,0.419-37.317,16.269c-13.237,13.237-1.712,22.761-1.712,22.761
		s9.518,11.52,22.755-1.721C136.064,106.049,136.488,84.586,136.488,84.586z"/>
	<path fill="#FFFFFF" d="M155.943,157.628c-13.237,13.237-1.714,22.758-1.714,22.758s9.518,11.52,22.755-1.718
		c15.853-15.85,16.273-37.314,16.273-37.314S171.794,141.779,155.943,157.628z"/>
</g>
</svg>
