<?xml version="1.0" encoding="utf-8"?>
<!-- Generator: Adobe Illustrator 16.0.0, SVG Export Plug-In . SVG Version: 6.00 Build 0)  -->
<!DOCTYPE svg PUBLIC "-//W3C//DTD SVG 1.1//EN" "http://www.w3.org/Graphics/SVG/1.1/DTD/svg11.dtd">
<svg version="1.1" xmlns="http://www.w3.org/2000/svg" xmlns:xlink="http://www.w3.org/1999/xlink" x="0px" y="0px"
	 width="284.985px" height="272.654px" viewBox="0 0 284.985 272.654" enable-background="new 0 0 284.985 272.654"
	 xml:space="preserve">
<g id="Layer_1">
	<circle fill="#005CA8" cx="143.033" cy="135.958" r="133.302"/>
</g>
<g id="Layer_2">
	<circle fill="#005CA8" cx="458.321" cy="292.431" r="28.347"/>
	<text transform="matrix(1 0 0 1 431.4521 81.7642)" fill="#005CA8" font-family="'Montserrat-Regular'" font-size="12">Mostarda</text>
	<text transform="matrix(1 0 0 1 399.7637 210.7637)"><tspan x="0" y="0" fill="#005CA8" font-family="'Montserrat-Regular'" font-size="12">Dióxido de Enxofre</tspan><tspan x="34.961" y="14.4" fill="#005CA8" font-family="'Montserrat-Regular'" font-size="12">Sulfitos</tspan></text>
	<text transform="matrix(1 0 0 1 430.4521 339.7637)" fill="#005CA8" font-family="'Montserrat-Regular'" font-size="12">Tremoços</text>
	<g>
		<g>
			<path fill="#FFFFFF" d="M455.048,170.651l-0.356,0.755c-0.552-0.334-1.104-0.472-1.489-0.472c-0.502,0-0.828,0.188-0.828,0.53
				c0,1.111,2.746,0.516,2.739,2.347c0,0.908-0.799,1.467-1.918,1.467c-0.799,0-1.555-0.327-2.077-0.806l0.37-0.741
				c0.522,0.479,1.177,0.741,1.721,0.741c0.597,0,0.953-0.226,0.953-0.618c0-1.133-2.746-0.501-2.746-2.31
				c0-0.872,0.747-1.417,1.852-1.417C453.929,170.127,454.576,170.338,455.048,170.651z"/>
			<path fill="#FFFFFF" d="M461.087,172.707c0,1.453-1.177,2.579-2.694,2.579c-1.52,0-2.696-1.126-2.696-2.579
				c0-1.46,1.177-2.564,2.696-2.564C459.91,170.142,461.087,171.254,461.087,172.707z M456.568,172.707
				c0,1.01,0.835,1.809,1.831,1.809c0.995,0,1.809-0.799,1.809-1.809s-0.813-1.794-1.809-1.794
				C457.396,170.912,456.568,171.697,456.568,172.707z"/>
			<path fill="#FFFFFF" d="M465.05,171.406c0,0.516-0.392,1.09-0.93,1.671l-1.322,1.402h2.484v0.77h-3.617v-0.625l1.874-2.012
				c0.37-0.378,0.617-0.792,0.617-1.083c0-0.407-0.319-0.654-0.851-0.654c-0.442,0-0.958,0.247-1.387,0.639l-0.342-0.661
				c0.553-0.45,1.198-0.727,1.853-0.727C464.388,170.127,465.05,170.629,465.05,171.406z"/>
		</g>
		<line fill="none" stroke="#FFFFFF" stroke-miterlimit="10" x1="440.985" y1="162.929" x2="457.441" y2="151.103"/>
		<line fill="none" stroke="#FFFFFF" stroke-miterlimit="10" x1="442.504" y1="164.448" x2="458.96" y2="152.622"/>
		<line fill="none" stroke="#FFFFFF" stroke-miterlimit="10" x1="475.415" y1="162.929" x2="458.959" y2="151.103"/>
		<line fill="none" stroke="#FFFFFF" stroke-miterlimit="10" x1="473.896" y1="164.448" x2="457.44" y2="152.622"/>
		<circle fill="#FFFFFF" cx="441.744" cy="163.688" r="4.292"/>
		<circle fill="#FFFFFF" cx="458.2" cy="151.863" r="4.293"/>
		<circle fill="#FFFFFF" cx="474.656" cy="163.688" r="4.292"/>
	</g>
	<path fill="#FFFFFF" d="M446.67,31.052l0.607,0.608l-0.718,0.717c-0.628,0.627-0.628,1.645,0,2.273l0.458,0.457l-4.997,5.948
		c-0.133,0.159-0.123,0.395,0.024,0.542l0.784,0.784c0.146,0.147,0.383,0.157,0.542,0.023l5.948-4.996l0.455,0.457
		c0.629,0.628,1.646,0.627,2.273,0l0.718-0.718l0.607,0.607c0.628,0.628,1.646,0.628,2.273,0l14.099-14.099
		c0.628-0.627,0.628-1.645,0-2.272l-6.703-6.703c-0.628-0.628-1.646-0.628-2.272,0l-14.1,14.099
		C446.043,29.407,446.043,30.424,446.67,31.052z"/>
	<path fill="none" stroke="#FFFFFF" stroke-linecap="round" stroke-linejoin="round" stroke-miterlimit="10" d="M470.216,48.312
		c0,0-1.498,0-20.622,0c-4.619,0-5.928-1.556-7.095-2.723"/>
	<g>
		<path fill="#FFFFFF" stroke="#065DA8" stroke-linecap="round" stroke-linejoin="round" stroke-miterlimit="10" d="
			M476.202,289.846c0,6.035-4.893,10.927-10.926,10.927h-3.168c-6.035,0-10.927-4.892-10.927-10.927l0,0
			c0-6.035,4.892-10.927,10.927-10.927h3.168C471.31,278.919,476.202,283.811,476.202,289.846L476.202,289.846z"/>
		<path fill="#FFFFFF" stroke="#065DA8" stroke-linecap="round" stroke-linejoin="round" stroke-miterlimit="10" d="
			M467.059,280.696c0,0.981-1.318,1.777-2.94,1.777h-0.852c-1.625,0-2.94-0.796-2.94-1.777l0,0c0-0.981,1.315-1.777,2.94-1.777
			h0.852C465.74,278.919,467.059,279.715,467.059,280.696L467.059,280.696z"/>
	</g>
	<g>
		<path fill="#FFFFFF" stroke="#065DA8" stroke-linecap="round" stroke-linejoin="round" stroke-miterlimit="10" d="
			M465.462,295.016c0,6.035-4.893,10.927-10.927,10.927h-3.166c-6.037,0-10.928-4.892-10.928-10.927l0,0
			c0-6.035,4.891-10.927,10.928-10.927h3.166C460.569,284.089,465.462,288.98,465.462,295.016L465.462,295.016z"/>
		<path fill="#FFFFFF" stroke="#065DA8" stroke-linecap="round" stroke-linejoin="round" stroke-miterlimit="10" d="
			M456.317,285.866c0,0.981-1.317,1.777-2.94,1.777h-0.852c-1.623,0-2.938-0.796-2.938-1.777l0,0c0-0.982,1.315-1.777,2.938-1.777
			h0.852C455,284.089,456.317,284.884,456.317,285.866L456.317,285.866z"/>
	</g>
	<g>
		<g>
			<path fill="#FFFFFF" d="M129.723,174.508l-1.411,2.988c-2.182-1.32-4.365-1.869-5.892-1.869c-1.985,0-3.275,0.749-3.275,2.101
				c0,4.395,10.863,2.038,10.836,9.278c0,3.593-3.16,5.808-7.588,5.808c-3.16,0-6.15-1.295-8.217-3.188l1.464-2.936
				c2.067,1.901,4.655,2.936,6.807,2.936c2.361,0,3.771-0.896,3.771-2.445c0-4.486-10.864-1.982-10.864-9.135
				c0-3.452,2.955-5.607,7.325-5.607C125.295,172.438,127.856,173.273,129.723,174.508z"/>
			<path fill="#FFFFFF" d="M153.607,182.642c0,5.749-4.656,10.199-10.658,10.199c-6.008,0-10.662-4.45-10.662-10.199
				c0-5.777,4.654-10.142,10.662-10.142C148.951,172.5,153.607,176.895,153.607,182.642z M135.736,182.642
				c0,3.995,3.302,7.154,7.24,7.154c3.936,0,7.154-3.159,7.154-7.154c0-3.994-3.218-7.098-7.154-7.098
				C139.011,175.543,135.736,178.647,135.736,182.642z"/>
			<path fill="#FFFFFF" d="M169.285,177.497c0,2.04-1.55,4.309-3.679,6.609l-5.231,5.545h9.829v3.047h-14.31v-2.468l7.414-7.963
				c1.463-1.495,2.44-3.132,2.44-4.283c0-1.607-1.263-2.584-3.364-2.584c-1.75,0-3.79,0.977-5.485,2.53l-1.353-2.619
				c2.187-1.776,4.739-2.873,7.328-2.873C166.665,172.438,169.285,174.423,169.285,177.497z"/>
		</g>
		
			<line fill="none" stroke="#FFFFFF" stroke-width="3.9561" stroke-miterlimit="10" x1="74.09" y1="143.964" x2="139.189" y2="97.182"/>
		
			<line fill="none" stroke="#FFFFFF" stroke-width="3.9561" stroke-miterlimit="10" x1="80.098" y1="149.971" x2="145.192" y2="103.189"/>
		
			<line fill="none" stroke="#FFFFFF" stroke-width="3.9561" stroke-miterlimit="10" x1="210.291" y1="143.964" x2="145.188" y2="97.182"/>
		
			<line fill="none" stroke="#FFFFFF" stroke-width="3.9561" stroke-miterlimit="10" x1="204.283" y1="149.971" x2="139.186" y2="103.189"/>
		<path fill="#FFFFFF" d="M94.071,146.965c0,9.381-7.599,16.984-16.979,16.984c-9.376,0-16.979-7.603-16.979-16.984
			c0-9.376,7.604-16.979,16.979-16.979C86.472,129.986,94.071,137.589,94.071,146.965z"/>
		<path fill="#FFFFFF" d="M159.171,100.188c0,9.377-7.607,16.979-16.983,16.979c-9.37,0-16.977-7.603-16.977-16.979
			c0-9.38,7.607-16.983,16.977-16.983C151.563,83.204,159.171,90.808,159.171,100.188z"/>
		<path fill="#FFFFFF" d="M190.31,146.965c0,9.381,7.599,16.984,16.979,16.984c9.377,0,16.98-7.603,16.98-16.984
			c0-9.376-7.604-16.979-16.98-16.979C197.908,129.986,190.31,137.589,190.31,146.965z"/>
	</g>
</g>
</svg>
