<?xml version="1.0" encoding="utf-8"?>
<!-- Generator: Adobe Illustrator 16.0.0, SVG Export Plug-In . SVG Version: 6.00 Build 0)  -->
<!DOCTYPE svg PUBLIC "-//W3C//DTD SVG 1.1//EN" "http://www.w3.org/Graphics/SVG/1.1/DTD/svg11.dtd">
<svg version="1.1" xmlns="http://www.w3.org/2000/svg" xmlns:xlink="http://www.w3.org/1999/xlink" x="0px" y="0px"
	 width="284.985px" height="272.654px" viewBox="0 0 284.985 272.654" enable-background="new 0 0 284.985 272.654"
	 xml:space="preserve">
<g id="Layer_1">
	
		<rect x="147.124" y="84.479" transform="matrix(-0.7201 -0.6938 0.6938 -0.7201 273.709 337.7623)" fill="#0066B2" width="115.704" height="58.398"/>
	<path fill="#0066B2" d="M102.54,52.513c22.378,23.224,21.865,60.023-1.145,82.192c-23.005,22.169-59.8,21.312-82.177-1.914
		C-3.159,109.567-2.646,72.767,20.36,50.599C43.373,28.43,80.163,29.286,102.54,52.513z"/>
	
		<rect x="23.285" y="84.479" transform="matrix(0.7201 -0.6938 0.6938 0.7201 -56.1664 88.1124)" fill="#0066B2" width="115.704" height="58.397"/>
	<path fill="#0066B2" d="M183.576,52.513c-22.381,23.224-21.868,60.023,1.143,82.192c23.005,22.169,59.8,21.312,82.177-1.914
		c22.378-23.224,21.865-60.024-1.142-82.192C242.743,28.43,205.951,29.286,183.576,52.513z"/>
	<circle fill="#0066B2" stroke="#0066B2" stroke-width="1.136" stroke-miterlimit="10" cx="143.108" cy="122.987" r="9.256"/>
	<circle fill="#0066B2" stroke="#0066B2" stroke-width="1.136" stroke-miterlimit="10" cx="113.991" cy="152.105" r="9.256"/>
	<circle fill="#0066B2" stroke="#0066B2" stroke-width="1.136" stroke-miterlimit="10" cx="85.075" cy="181.021" r="9.256"/>
	<circle fill="#0066B2" stroke="#0066B2" stroke-width="1.136" stroke-miterlimit="10" cx="172.225" cy="152.105" r="9.256"/>
	<circle fill="#0066B2" stroke="#0066B2" stroke-width="1.136" stroke-miterlimit="10" cx="143.108" cy="181.223" r="9.255"/>
	<circle fill="#0066B2" stroke="#0066B2" stroke-width="1.136" stroke-miterlimit="10" cx="114.192" cy="210.14" r="9.256"/>
	<circle fill="#0066B2" stroke="#0066B2" stroke-width="1.136" stroke-miterlimit="10" cx="201.041" cy="181.122" r="9.256"/>
	<circle fill="#0066B2" stroke="#0066B2" stroke-width="1.136" stroke-miterlimit="10" cx="171.923" cy="210.24" r="9.257"/>
	<circle fill="#0066B2" stroke="#0066B2" stroke-width="1.136" stroke-miterlimit="10" cx="143.008" cy="239.157" r="9.256"/>
</g>
<g id="Layer_2">
</g>
</svg>
