<?xml version="1.0" encoding="utf-8"?>
<!-- Generator: Adobe Illustrator 16.0.0, SVG Export Plug-In . SVG Version: 6.00 Build 0)  -->
<!DOCTYPE svg PUBLIC "-//W3C//DTD SVG 1.1//EN" "http://www.w3.org/Graphics/SVG/1.1/DTD/svg11.dtd">
<svg version="1.1" id="Layer_1" xmlns="http://www.w3.org/2000/svg" xmlns:xlink="http://www.w3.org/1999/xlink" x="0px" y="0px"
	 width="280px" height="274.5px" viewBox="28.833 0 280 274.5" enable-background="new 28.833 0 280 274.5" xml:space="preserve">
<g id="Layer_1_1_">
	<circle fill="#005CA8" cx="168.963" cy="135.958" r="133.302"/>
</g>
<rect y="303" fill="none" width="338.667" height="57"/>
<g>
	<path fill="#FFFFFF" d="M204.598,102.563c0-22.941-15.953-41.53-35.635-41.53c-19.679,0-35.635,18.589-35.635,41.53
		c0,3.261,7.086,26.019,7.086,33.398c0,7.368-7.086,30.129-7.086,33.391c0,22.937,15.957,41.53,35.635,41.53
		c19.682,0,35.635-18.594,35.635-41.53c0-3.261-7.086-26.022-7.086-33.391C197.512,128.582,204.598,105.825,204.598,102.563z"/>
	<path fill="#005CA8" d="M145.051,161.111c-2.588,0-4.686-2.445-4.686-5.466c0-0.429,0.931-3.429,0.931-4.396h3.755V161.111z"/>
	<path fill="#005CA8" d="M142.708,174.676c-2.588,0-4.69-2.445-4.69-5.466c0-0.429,0.935-3.425,0.935-4.396h3.755V174.676z"/>
	<path fill="#005CA8" d="M147.415,188.244c-2.592,0-4.69-2.449-4.69-5.467c0-0.428,0.931-3.424,0.931-4.396h3.759V188.244z"/>
	<path fill="#005CA8" d="M156.672,201.809c-2.592,0-4.69-2.444-4.69-5.466c0-0.429,0.931-3.425,0.931-4.392h3.759V201.809z"/>
	<path fill="#005CA8" d="M152.031,174.676c-2.588,0-4.686-2.445-4.686-5.466c0-0.429,0.931-3.425,0.931-4.396h3.755V174.676z"/>
	<path fill="#005CA8" d="M156.742,188.244c-2.592,0-4.69-2.449-4.69-5.467c0-0.428,0.935-3.424,0.935-4.396h3.755V188.244z"/>
	<path fill="#005CA8" d="M166,206.74c-2.592,0-4.69-2.445-4.69-5.467c0-0.428,0.931-3.424,0.931-4.396H166V206.74z"/>
	<path fill="#005CA8" d="M145.051,110.805c-2.588,0-4.686,2.445-4.686,5.466c0,0.429,0.931,3.425,0.931,4.393h3.755V110.805z"/>
	<path fill="#005CA8" d="M142.708,97.236c-2.588,0-4.69,2.449-4.69,5.466c0,0.433,0.935,3.425,0.935,4.396h3.755V97.236z"/>
	<path fill="#005CA8" d="M147.415,83.672c-2.592,0-4.69,2.445-4.69,5.466c0,0.429,0.931,3.425,0.931,4.396h3.759V83.672z"/>
	<path fill="#005CA8" d="M156.672,70.104c-2.592,0-4.69,2.449-4.69,5.466c0,0.433,0.931,3.425,0.931,4.4h3.759V70.104z"/>
	<path fill="#005CA8" d="M152.031,97.236c-2.588,0-4.686,2.449-4.686,5.466c0,0.433,0.931,3.425,0.931,4.396h3.755V97.236z"/>
	<path fill="#005CA8" d="M156.742,83.672c-2.592,0-4.69,2.445-4.69,5.466c0,0.429,0.935,3.425,0.935,4.396h3.755V83.672z"/>
	<path fill="#005CA8" d="M166,65.172c-2.592,0-4.69,2.449-4.69,5.466c0,0.433,0.931,3.425,0.931,4.4H166V65.172z"/>
</g>
</svg>
