<?xml version="1.0" encoding="utf-8"?>
<!-- Generator: Adobe Illustrator 16.0.0, SVG Export Plug-In . SVG Version: 6.00 Build 0)  -->
<!DOCTYPE svg PUBLIC "-//W3C//DTD SVG 1.1//EN" "http://www.w3.org/Graphics/SVG/1.1/DTD/svg11.dtd">
<svg version="1.1" id="Layer_1" xmlns="http://www.w3.org/2000/svg" xmlns:xlink="http://www.w3.org/1999/xlink" x="0px" y="0px"
	 width="272.328px" height="274.5px" viewBox="0 0 272.328 274.5" enable-background="new 0 0 272.328 274.5" xml:space="preserve">
<g id="Layer_1_1_">
	<circle fill="#005CA8" cx="136.637" cy="135.958" r="133.302"/>
	<path fill="#FFFFFF" d="M149.767,86.935c0-9.814-5.342-18.36-13.265-22.95c-7.92,4.589-13.263,13.136-13.263,22.95
		c0,9.812,5.343,18.361,13.263,22.951C144.425,105.295,149.767,96.747,149.767,86.935z"/>
	<path fill="#FFFFFF" d="M123.406,113.412c-6.936-6.938-16.757-9.205-25.607-6.846c-2.351,8.844-0.084,18.665,6.853,25.604
		c6.939,6.937,16.759,9.203,25.604,6.849C132.615,130.172,130.348,120.351,123.406,113.412z"/>
	
		<line fill="none" stroke="#FFFFFF" stroke-width="2.3513" stroke-miterlimit="10" x1="136.502" y1="117.235" x2="136.502" y2="252.254"/>
	<path fill="#FFFFFF" d="M123.406,150.643c-6.936-6.939-16.757-9.206-25.607-6.848c-2.351,8.845-0.084,18.666,6.853,25.604
		c6.939,6.937,16.759,9.204,25.604,6.85C132.615,167.402,130.348,157.581,123.406,150.643z"/>
	<path fill="#FFFFFF" d="M123.406,187.872c-6.936-6.938-16.757-9.205-25.607-6.851c-2.351,8.846-0.084,18.67,6.853,25.606
		c6.939,6.938,16.759,9.204,25.604,6.849C132.615,204.632,130.348,194.809,123.406,187.872z"/>
	
		<line fill="none" stroke="#FFFFFF" stroke-width="2.3513" stroke-miterlimit="10" x1="102.387" y1="38.152" x2="102.387" y2="92.393"/>
	<path fill="#FFFFFF" d="M149.694,113.412c6.938-6.938,16.757-9.205,25.606-6.846c2.352,8.844,0.087,18.665-6.854,25.604
		c-6.938,6.937-16.757,9.203-25.602,6.849C140.485,130.172,142.753,120.351,149.694,113.412z"/>
	<path fill="#FFFFFF" d="M149.694,150.643c6.938-6.939,16.757-9.206,25.606-6.848c2.352,8.845,0.087,18.666-6.854,25.604
		c-6.938,6.937-16.757,9.204-25.602,6.85C140.485,167.402,142.753,157.581,149.694,150.643z"/>
	<path fill="#FFFFFF" d="M149.694,187.872c6.938-6.938,16.757-9.205,25.606-6.851c2.352,8.846,0.087,18.67-6.854,25.606
		c-6.938,6.938-16.757,9.204-25.602,6.849C140.485,204.632,142.753,194.809,149.694,187.872z"/>
	
		<line fill="none" stroke="#FFFFFF" stroke-width="2.3513" stroke-miterlimit="10" x1="170.712" y1="38.152" x2="170.712" y2="92.393"/>
	<path fill="#FFFFFF" d="M123.406,187.872c-6.936-6.938-16.757-9.205-25.607-6.851c-2.351,8.846-0.084,18.67,6.853,25.606
		c6.939,6.938,16.759,9.204,25.604,6.849C132.615,204.632,130.348,194.809,123.406,187.872z"/>
	<path fill="#FFFFFF" d="M149.694,187.872c6.938-6.938,16.757-9.205,25.606-6.851c2.352,8.846,0.087,18.67-6.854,25.606
		c-6.938,6.938-16.757,9.204-25.602,6.849C140.485,204.632,142.753,194.809,149.694,187.872z"/>
</g>
</svg>
