<?xml version="1.0" encoding="utf-8"?>
<!-- Generator: Adobe Illustrator 16.0.0, SVG Export Plug-In . SVG Version: 6.00 Build 0)  -->
<!DOCTYPE svg PUBLIC "-//W3C//DTD SVG 1.1//EN" "http://www.w3.org/Graphics/SVG/1.1/DTD/svg11.dtd">
<svg version="1.1" id="Layer_1" xmlns="http://www.w3.org/2000/svg" xmlns:xlink="http://www.w3.org/1999/xlink" x="0px" y="0px"
	 width="282px" height="275.5px" viewBox="28.833 0 282 275.5" enable-background="new 28.833 0 282 275.5" xml:space="preserve">
<g id="Layer_1_1_">
	<circle fill="#005CA8" cx="168.963" cy="135.958" r="133.302"/>
</g>
<g>
	<g>
		<path fill="#FFFFFF" d="M166.192,167c-1.318-0.865-2.497-1.788-3.658-2.859c-1.063-1.161-1.99-2.34-2.851-3.658
			c-0.659-1.013-1.112-2.142-1.693-3.196c-0.659,1.434-0.704,2.982-0.44,4.515c0.279,1.838,1.565,3.732,2.578,4.746
			c1.014,1.021,2.913,2.299,4.75,2.57c0.882,0.157,1.755,0.231,2.649,0.107c0.428-0.058,0.827-0.148,1.235-0.297
			c0.05-0.008,0.676-0.214,0.626-0.239C167.634,167.881,166.761,167.371,166.192,167z"/>
		<path fill="#FFFFFF" d="M185.554,62.225c1.393-0.939,2.312-2.538,2.312-4.35c0-2.892-2.35-5.24-5.246-5.24h-28.572
			c-2.896,0-5.249,2.348-5.249,5.24c0,1.812,0.923,3.411,2.315,4.35c-1.582,22.921-16.815,35.584-16.815,69.784v58.101
			c0,13.382,10.842,24.216,24.214,24.216h9.821h9.82c13.371,0,24.21-10.834,24.21-24.216v-58.101
			C202.369,97.809,187.134,85.146,185.554,62.225z M168.335,175.082c-8.874,0-16.091-7.217-16.091-16.082
			c0-8.231,12.787-22.723,14.25-24.346c0.47-0.527,1.141-0.824,1.842-0.824c0.703,0,1.371,0.297,1.841,0.824
			c1.462,1.623,14.248,16.115,14.248,24.346C184.425,167.865,177.208,175.082,168.335,175.082z"/>
	</g>
</g>
</svg>
