<?xml version="1.0" encoding="utf-8"?>
<!-- Generator: Adobe Illustrator 16.0.0, SVG Export Plug-In . SVG Version: 6.00 Build 0)  -->
<!DOCTYPE svg PUBLIC "-//W3C//DTD SVG 1.1//EN" "http://www.w3.org/Graphics/SVG/1.1/DTD/svg11.dtd">
<svg version="1.1" xmlns="http://www.w3.org/2000/svg" xmlns:xlink="http://www.w3.org/1999/xlink" x="0px" y="0px"
	 width="284.985px" height="272.654px" viewBox="0 0 284.985 272.654" enable-background="new 0 0 284.985 272.654"
	 xml:space="preserve">
<g id="Layer_1">
	<circle fill="#005CA8" cx="143.033" cy="135.958" r="133.302"/>
</g>
<g id="Layer_2">
	<circle fill="#005CA8" cx="441.392" cy="373.307" r="28.347"/>
	<circle fill="#005CA8" cx="441.392" cy="502.307" r="28.347"/>
	<circle fill="#005CA8" cx="441.392" cy="244.307" r="28.347"/>
	<text transform="matrix(1 0 0 1 417.2246 162.6406)"><tspan x="0" y="0" fill="#005CA8" font-family="'Montserrat-Regular'" font-size="12">Marisco</tspan><tspan x="-10.002" y="14.4" fill="#005CA8" font-family="'Montserrat-Regular'" font-size="12">Crustáceos</tspan></text>
	<text transform="matrix(1 0 0 1 423.2188 291.6406)" fill="#005CA8" font-family="'Montserrat-Regular'" font-size="12">Peixe</text>
	<text transform="matrix(1 0 0 1 426.5225 420.6406)" fill="#005CA8" font-family="'Montserrat-Regular'" font-size="12">Soja</text>
	<text transform="matrix(1 0 0 1 395.5225 549.6406)" fill="#005CA8" font-family="'Montserrat-Regular'" font-size="12">Frutos de casca</text>
	<g>
		<path fill="none" stroke="#FFFFFF" stroke-width="4.545" stroke-miterlimit="10" d="M80.7,106.723
			c0-13.893,11.263-25.155,25.153-25.155c11.072,0,20.471,7.153,23.835,17.085"/>
		<path fill="none" stroke="#FFFFFF" stroke-width="4.545" stroke-miterlimit="10" d="M48.453,96.682
			c13.729,0,21.555-22.697,48.431-22.697c18.118,0,32.805,14.687,32.805,32.804"/>
		<g>
			<path fill="#FFFFFF" d="M201.294,95.423c-5.669-2.054-11.777-3.179-18.155-3.179l-80.824-0.192c0,0,1.56,1.449,18.285,18.172
				c16.722,16.726,29.579,14.726,29.579,14.726h22.003l-0.206-0.208L201.294,95.423z M145.203,105.525
				c0,3.359-2.724,6.081-6.081,6.081c-3.36,0-6.08-2.721-6.08-6.081c0-3.361,2.72-6.08,6.08-6.08
				C142.479,99.445,145.203,102.165,145.203,105.525z"/>
			<path fill="#FFFFFF" d="M195.3,133.907c-3.63-4.378-8.744-7.478-14.567-8.544l27.062-27.06
				c13.685,7.169,23.858,20.116,27.283,35.604H195.3z"/>
			<path fill="#FFFFFF" d="M178.408,174.332c7.007-0.61,13.175-4.133,17.288-9.358l21.428,21.428
				c-9.22,7.658-21.06,12.269-33.985,12.269c-1.635,0-3.202-0.042-4.73-0.107V174.332z"/>
			<path fill="#FFFFFF" d="M127.23,139.25c3.286,0,4.47,1.194,6.781,3.167l0.499,0.461l6.128,6.14v37.275
				c-0.056-0.058-0.087-0.098-0.087-0.098L93.605,139.25H127.23z"/>
			<path fill="#FFFFFF" d="M199.151,159.047c1.18-2.888,1.838-6.045,1.838-9.356c0-3.234-0.63-6.318-1.758-9.15h36.887
				c0.15,1.621,0.233,3.258,0.233,4.917c0,14.079-5.471,26.869-14.401,36.389L199.151,159.047z"/>
			<path fill="#FFFFFF" d="M159.284,167.689c3.396,3.205,7.703,5.455,12.485,6.33v24.052c-21.282-2.318-30.07-10.691-31.111-11.756
				L159.284,167.689z"/>
		</g>
	</g>
	<path fill="#005CA8" d="M444.782,494.174c-1.053-0.488-2.194-0.764-3.392-0.764c-1.196,0-2.337,0.275-3.39,0.764l3.391,12.562
		L444.782,494.174z"/>
	<path fill="#FFFFFF" stroke="#065DA8" stroke-miterlimit="10" d="M445.68,490.854l-4.287,15.883l-4.289-15.883
		c-3.037,1.861-5.119,5.631-5.119,9.984c0,6.203,4.213,12.922,9.407,12.922c5.196,0,9.407-6.719,9.407-12.922
		C450.799,496.484,448.717,492.715,445.68,490.854z"/>
	<path fill="#005CA8" stroke="#FFFFFF" stroke-miterlimit="10" d="M444.782,494.174c-1.053-0.488-2.194-0.764-3.392-0.764
		c-1.196,0-2.337,0.275-3.39,0.764l3.391,12.562L444.782,494.174z"/>
	<path fill="#FFFFFF" d="M445.68,490.854l-4.287,15.883l-4.289-15.883c-3.037,1.861-5.119,5.631-5.119,9.984
		c0,6.203,4.213,12.922,9.407,12.922c5.196,0,9.407-6.719,9.407-12.922C450.799,496.484,448.717,492.715,445.68,490.854z"/>
</g>
</svg>
