<?xml version="1.0" encoding="utf-8"?>
<!-- Generator: Adobe Illustrator 16.0.0, SVG Export Plug-In . SVG Version: 6.00 Build 0)  -->
<!DOCTYPE svg PUBLIC "-//W3C//DTD SVG 1.1//EN" "http://www.w3.org/Graphics/SVG/1.1/DTD/svg11.dtd">
<svg version="1.1" xmlns="http://www.w3.org/2000/svg" xmlns:xlink="http://www.w3.org/1999/xlink" x="0px" y="0px"
	 width="284.985px" height="272.654px" viewBox="0 0 284.985 272.654" enable-background="new 0 0 284.985 272.654"
	 xml:space="preserve">
<g id="Layer_1">
	<circle fill="#005CA8" cx="143.033" cy="135.958" r="133.302"/>
</g>
<g id="Layer_2">
	<text transform="matrix(1 0 0 1 412.7852 112.9741)" fill="#005CA8" font-family="'Montserrat-Regular'" font-size="12">Aipo</text>
	<text transform="matrix(1 0 0 1 403.3076 241.9746)" fill="#005CA8" font-family="'Montserrat-Regular'" font-size="12">Sésamo</text>
	<text transform="matrix(1 0 0 1 400.3076 370.9746)" fill="#005CA8" font-family="'Montserrat-Regular'" font-size="12">Moluscos</text>
	<path fill="#FFFFFF" d="M426.626,196.655c0,0-6.627,0.13-11.521,5.024c-4.087,4.087-0.529,7.025-0.529,7.025
		s2.939,3.558,7.026-0.529C426.496,203.282,426.626,196.655,426.626,196.655z"/>
	<path fill="#FFFFFF" d="M442.737,180.544c0,0-6.626,0.13-11.521,5.024c-4.087,4.086-0.529,7.025-0.529,7.025
		s2.939,3.558,7.025-0.529C442.607,187.17,442.737,180.544,442.737,180.544z"/>
	<path fill="#FFFFFF" d="M425.926,179.829c0,0-6.627,0.129-11.521,5.023c-4.087,4.087-0.528,7.027-0.528,7.027
		s2.938,3.557,7.025-0.531C425.795,186.455,425.926,179.829,425.926,179.829z"/>
	<path fill="#FFFFFF" d="M431.933,202.38c-4.087,4.087-0.529,7.026-0.529,7.026s2.938,3.557,7.025-0.53
		c4.895-4.894,5.024-11.521,5.024-11.521S436.826,197.486,431.933,202.38z"/>
	<g>
		<g>
			<path fill="#FFFFFF" d="M422.58,335.973c3.992,0,5.626-1.634,3.63-3.63s-5.264-1.996-7.261,0
				C416.953,334.339,418.586,335.973,422.58,335.973z"/>
			<path fill="none" stroke="#065DA8" stroke-width="1" stroke-linecap="round" stroke-linejoin="round" stroke-miterlimit="10" d="
				M422.58,335.973c3.992,0,5.626-1.634,3.63-3.63s-5.264-1.996-7.261,0C416.953,334.339,418.586,335.973,422.58,335.973z"/>
		</g>
		<g>
			<path fill="#FFFFFF" d="M434.729,335.973c-3.992,0-5.626-1.634-3.63-3.63s5.264-1.996,7.261,0
				C440.355,334.339,438.723,335.973,434.729,335.973z"/>
			<path fill="none" stroke="#065DA8" stroke-width="1" stroke-linecap="round" stroke-linejoin="round" stroke-miterlimit="10" d="
				M434.729,335.973c-3.992,0-5.626-1.634-3.63-3.63s5.264-1.996,7.261,0C440.355,334.339,438.723,335.973,434.729,335.973z"/>
		</g>
		<g>
			<path fill="#FFFFFF" d="M446.311,316.105c-1.159-0.327-2.375-1.544-2.701-2.703c-0.327-1.159-1.58-2.069-2.783-2.021
				s-2.736-0.732-3.405-1.734c-0.669-1.003-2.142-1.48-3.271-1.063s-2.829,0.148-3.774-0.599c-0.946-0.746-2.495-0.746-3.441,0
				c-0.945,0.747-2.645,1.016-3.775,0.599c-1.13-0.417-2.602,0.061-3.271,1.063c-0.669,1.002-2.201,1.782-3.405,1.734
				s-2.457,0.862-2.783,2.021s-1.543,2.376-2.703,2.703c-1.159,0.326-2.069,1.575-2.021,2.774s4.495,6.589,9.883,11.978
				c5.389,5.388,14.205,5.388,19.594,0c5.388-5.389,9.835-10.778,9.882-11.978S447.471,316.432,446.311,316.105z"/>
			<path fill="none" stroke="#065DA8" stroke-width="1" stroke-linecap="round" stroke-linejoin="round" stroke-miterlimit="10" d="
				M446.311,316.105c-1.159-0.327-2.375-1.544-2.701-2.703c-0.327-1.159-1.58-2.069-2.783-2.021s-2.736-0.732-3.405-1.734
				c-0.669-1.003-2.142-1.48-3.271-1.063s-2.829,0.148-3.774-0.599c-0.946-0.746-2.495-0.746-3.441,0
				c-0.945,0.747-2.645,1.016-3.775,0.599c-1.13-0.417-2.602,0.061-3.271,1.063c-0.669,1.002-2.201,1.782-3.405,1.734
				s-2.457,0.862-2.783,2.021s-1.543,2.376-2.703,2.703c-1.159,0.326-2.069,1.575-2.021,2.774s4.495,6.589,9.883,11.978
				c5.389,5.388,14.205,5.388,19.594,0c5.388-5.389,9.835-10.778,9.882-11.978S447.471,316.432,446.311,316.105z"/>
		</g>
		
			<line fill="none" stroke="#065DA8" stroke-width="1" stroke-linecap="round" stroke-linejoin="round" stroke-miterlimit="10" x1="428.654" y1="336.449" x2="428.654" y2="307.551"/>
		
			<line fill="none" stroke="#065DA8" stroke-width="1" stroke-linecap="round" stroke-linejoin="round" stroke-miterlimit="10" x1="428.654" y1="336.449" x2="421.328" y2="308.666"/>
		
			<line fill="none" stroke="#065DA8" stroke-width="1" stroke-linecap="round" stroke-linejoin="round" stroke-miterlimit="10" x1="428.654" y1="336.449" x2="414.693" y2="312.017"/>
		
			<line fill="none" stroke="#065DA8" stroke-width="1" stroke-linecap="round" stroke-linejoin="round" stroke-miterlimit="10" x1="428.654" y1="336.449" x2="409.55" y2="317.359"/>
		
			<line fill="none" stroke="#065DA8" stroke-width="1" stroke-linecap="round" stroke-linejoin="round" stroke-miterlimit="10" x1="428.654" y1="336.449" x2="435.981" y2="308.666"/>
		
			<line fill="none" stroke="#065DA8" stroke-width="1" stroke-linecap="round" stroke-linejoin="round" stroke-miterlimit="10" x1="428.654" y1="336.449" x2="442.615" y2="312.017"/>
		
			<line fill="none" stroke="#065DA8" stroke-width="1" stroke-linecap="round" stroke-linejoin="round" stroke-miterlimit="10" x1="428.654" y1="336.449" x2="447.76" y2="317.359"/>
	</g>
	<g>
		<g>
			<path fill="#FFFFFF" d="M120.248,179.957c14.565,0,20.524-5.958,13.242-13.241c-7.282-7.282-19.2-7.282-26.483,0
				C99.724,173.999,105.683,179.957,120.248,179.957z"/>
			
				<path fill="none" stroke="#065DA8" stroke-width="3.6476" stroke-linecap="round" stroke-linejoin="round" stroke-miterlimit="10" d="
				M120.248,179.957c14.565,0,20.524-5.958,13.242-13.241c-7.282-7.282-19.2-7.282-26.483,0
				C99.724,173.999,105.683,179.957,120.248,179.957z"/>
		</g>
		<g>
			<path fill="#FFFFFF" d="M164.565,179.957c-14.566,0-20.525-5.958-13.242-13.241c7.282-7.282,19.199-7.282,26.482,0
				C185.089,173.999,179.131,179.957,164.565,179.957z"/>
			
				<path fill="none" stroke="#065DA8" stroke-width="3.6476" stroke-linecap="round" stroke-linejoin="round" stroke-miterlimit="10" d="
				M164.565,179.957c-14.566,0-20.525-5.958-13.242-13.241c7.282-7.282,19.199-7.282,26.482,0
				C185.089,173.999,179.131,179.957,164.565,179.957z"/>
		</g>
		<g>
			<path fill="#FFFFFF" d="M206.813,107.485c-4.229-1.192-8.665-5.629-9.857-9.858c-1.191-4.23-5.76-7.548-10.15-7.374
				c-4.39,0.175-9.979-2.673-12.421-6.328s-7.812-5.4-11.934-3.877s-10.318,0.541-13.771-2.182c-3.451-2.722-9.098-2.722-12.549,0
				c-3.452,2.722-9.648,3.704-13.771,2.182c-4.124-1.522-9.493,0.222-11.932,3.877c-2.439,3.655-8.029,6.503-12.422,6.328
				c-4.393-0.174-8.961,3.144-10.152,7.374c-1.191,4.229-5.628,8.666-9.858,9.858c-4.23,1.192-7.55,5.747-7.376,10.122
				c0.175,4.375,16.397,24.035,36.052,43.688c19.654,19.654,51.814,19.654,71.469,0c19.654-19.654,35.875-39.314,36.048-43.688
				C214.361,113.232,211.042,108.677,206.813,107.485z"/>
			
				<path fill="none" stroke="#065DA8" stroke-width="3.6476" stroke-linecap="round" stroke-linejoin="round" stroke-miterlimit="10" d="
				M206.813,107.485c-4.229-1.192-8.665-5.629-9.857-9.858c-1.191-4.23-5.76-7.548-10.15-7.374
				c-4.39,0.175-9.979-2.673-12.421-6.328s-7.812-5.4-11.934-3.877s-10.318,0.541-13.771-2.182c-3.451-2.722-9.098-2.722-12.549,0
				c-3.452,2.722-9.648,3.704-13.771,2.182c-4.124-1.522-9.493,0.222-11.932,3.877c-2.439,3.655-8.029,6.503-12.422,6.328
				c-4.393-0.174-8.961,3.144-10.152,7.374c-1.191,4.229-5.628,8.666-9.858,9.858c-4.23,1.192-7.55,5.747-7.376,10.122
				c0.175,4.375,16.397,24.035,36.052,43.688c19.654,19.654,51.814,19.654,71.469,0c19.654-19.654,35.875-39.314,36.048-43.688
				C214.361,113.232,211.042,108.677,206.813,107.485z"/>
		</g>
		
			<line fill="none" stroke="#065DA8" stroke-width="3.6476" stroke-linecap="round" stroke-linejoin="round" stroke-miterlimit="10" x1="142.406" y1="181.695" x2="142.406" y2="76.282"/>
		
			<line fill="none" stroke="#065DA8" stroke-width="3.6476" stroke-linecap="round" stroke-linejoin="round" stroke-miterlimit="10" x1="142.406" y1="181.695" x2="115.683" y2="80.35"/>
		
			<line fill="none" stroke="#065DA8" stroke-width="3.6476" stroke-linecap="round" stroke-linejoin="round" stroke-miterlimit="10" x1="142.406" y1="181.695" x2="91.481" y2="92.572"/>
		
			<line fill="none" stroke="#065DA8" stroke-width="3.6476" stroke-linecap="round" stroke-linejoin="round" stroke-miterlimit="10" x1="142.406" y1="181.695" x2="72.719" y2="112.061"/>
		
			<line fill="none" stroke="#065DA8" stroke-width="3.6476" stroke-linecap="round" stroke-linejoin="round" stroke-miterlimit="10" x1="142.406" y1="181.695" x2="169.134" y2="80.35"/>
		
			<line fill="none" stroke="#065DA8" stroke-width="3.6476" stroke-linecap="round" stroke-linejoin="round" stroke-miterlimit="10" x1="142.406" y1="181.695" x2="193.332" y2="92.572"/>
		
			<line fill="none" stroke="#065DA8" stroke-width="3.6476" stroke-linecap="round" stroke-linejoin="round" stroke-miterlimit="10" x1="142.406" y1="181.695" x2="212.098" y2="112.061"/>
	</g>
</g>
</svg>
