<?xml version="1.0" encoding="utf-8"?>
<!-- Generator: Adobe Illustrator 16.0.0, SVG Export Plug-In . SVG Version: 6.00 Build 0)  -->
<!DOCTYPE svg PUBLIC "-//W3C//DTD SVG 1.1//EN" "http://www.w3.org/Graphics/SVG/1.1/DTD/svg11.dtd">
<svg version="1.1" id="Layer_1" xmlns="http://www.w3.org/2000/svg" xmlns:xlink="http://www.w3.org/1999/xlink" x="0px" y="0px"
	 width="272.328px" height="273.5px" viewBox="0 0 272.328 273.5" enable-background="new 0 0 272.328 273.5" xml:space="preserve">
<g id="Layer_1_1_">
	<circle fill="#005CA8" cx="136.637" cy="135.958" r="133.302"/>
</g>
<g>
	<g id="b55_egg_1_">
		<path fill="#FFFFFF" d="M205.811,113.401c0,21.864-14.845,39.588-33.162,39.588c-18.317,0.005-33.168-17.724-33.168-39.588
			c0-21.864,14.851-45.557,33.168-45.557S205.811,91.537,205.811,113.401z"/>
	</g>
</g>
<g>
	<g id="b55_egg_2_">
		<path fill="#FFFFFF" d="M132.849,113.401c0,21.864-14.848,39.588-33.162,39.588c-18.322,0.005-33.171-17.724-33.171-39.588
			c0-21.864,14.849-45.557,33.166-45.557C118.001,67.844,132.849,91.537,132.849,113.401z"/>
	</g>
</g>
<g>
	<g id="b55_egg">
		<path fill="#FFFFFF" stroke="#065DA8" stroke-width="4.68" stroke-miterlimit="10" d="M172.649,156.568
			c0,26.237-17.819,47.502-39.8,47.502c-21.983,0.006-39.799-21.266-39.799-47.502c0-26.238,17.815-54.666,39.799-54.666
			C154.83,101.902,172.649,130.33,172.649,156.568z"/>
	</g>
</g>
</svg>
