<?xml version="1.0" encoding="utf-8"?>
<!-- Generator: Adobe Illustrator 16.0.0, SVG Export Plug-In . SVG Version: 6.00 Build 0)  -->
<!DOCTYPE svg PUBLIC "-//W3C//DTD SVG 1.1//EN" "http://www.w3.org/Graphics/SVG/1.1/DTD/svg11.dtd">
<svg version="1.1" id="Layer_1" xmlns="http://www.w3.org/2000/svg" xmlns:xlink="http://www.w3.org/1999/xlink" x="0px" y="0px"
	 width="278px" height="274.5px" viewBox="28.833 0 278 274.5" enable-background="new 28.833 0 278 274.5" xml:space="preserve">
<g id="Layer_1_1_">
	<circle fill="#005CA8" cx="168.963" cy="135.958" r="133.302"/>
</g>
<rect y="303" fill="none" width="338.667" height="57"/>
<path fill="#FFFFFF" stroke="#065DA8" stroke-width="4.6329" stroke-miterlimit="10" d="M244.007,162.172v-59.983
	c0-2.941-2.635-5.171-5.547-4.714c-12.967,2.059-23.574,11.211-27.729,23.359c-12.293-16.763-31.458-27.558-52.985-27.558
	c-25.011,0-46.836,14.55-58.392,36.154c-0.923,1.732-0.923,3.809,0,5.542c11.569,21.572,33.399,36.122,58.409,36.122
	c21.522,0,40.692-10.781,52.981-27.558c4.139,12.144,14.756,21.301,27.73,23.354C241.373,167.353,244.007,165.122,244.007,162.172z
	 M131.863,129.732c-4.045,0-7.325-3.28-7.325-7.325c0-4.045,3.28-7.325,7.325-7.325c4.04,0,7.325,3.28,7.325,7.325
	C139.188,126.452,135.903,129.732,131.863,129.732z"/>
</svg>
