<?xml version="1.0" encoding="utf-8"?>
<!-- Generator: Adobe Illustrator 16.0.0, SVG Export Plug-In . SVG Version: 6.00 Build 0)  -->
<!DOCTYPE svg PUBLIC "-//W3C//DTD SVG 1.1//EN" "http://www.w3.org/Graphics/SVG/1.1/DTD/svg11.dtd">
<svg version="1.1" xmlns="http://www.w3.org/2000/svg" xmlns:xlink="http://www.w3.org/1999/xlink" x="0px" y="0px"
	 width="284.985px" height="272.654px" viewBox="0 0 284.985 272.654" enable-background="new 0 0 284.985 272.654"
	 xml:space="preserve">
<g id="Layer_1">
	<circle fill="#005CA8" cx="143.033" cy="135.958" r="133.302"/>
</g>
<g id="Layer_2">
	<g>
		
			<path fill="#FFFFFF" stroke="#065DA8" stroke-width="2.7486" stroke-linecap="round" stroke-linejoin="round" stroke-miterlimit="10" d="
			M143.801,66.021c0,0-35.26,36.666-35.26,89.787c0,44.354,35.26,40.998,35.26,40.998S200.48,175.597,143.801,66.021
			c-23.992,96.358,0,130.785,0,130.785s35.26,3.355,35.26-40.998C179.061,102.688,143.801,66.021,143.801,66.021
			c23.988,96.358,0,130.785,0,130.785S87.121,175.597,143.801,66.021z"/>
		
			<line fill="#FFFFFF" stroke="#065DA8" stroke-width="2.7486" stroke-miterlimit="10" x1="173.351" y1="181.26" x2="165.046" y2="172.508"/>
		
			<line fill="#FFFFFF" stroke="#065DA8" stroke-width="2.7486" stroke-miterlimit="10" x1="168.96" y1="147.023" x2="153.894" y2="157.529"/>
		
			<line fill="#FFFFFF" stroke="#065DA8" stroke-width="2.7486" stroke-miterlimit="10" x1="174.64" y1="123.171" x2="167.574" y2="128.099"/>
		
			<line fill="#FFFFFF" stroke="#065DA8" stroke-width="2.7486" stroke-miterlimit="10" x1="162.781" y1="111.436" x2="150.635" y2="98.836"/>
		
			<line fill="#FFFFFF" stroke="#065DA8" stroke-width="2.7486" stroke-miterlimit="10" x1="149.124" y1="183.512" x2="135.034" y2="168.977"/>
		
			<line fill="#FFFFFF" stroke="#065DA8" stroke-width="2.7486" stroke-miterlimit="10" x1="154.116" y1="130.324" x2="132.959" y2="145.087"/>
		<g>
			
				<line fill="#FFFFFF" stroke="#065DA8" stroke-width="2.7486" stroke-miterlimit="10" x1="114.162" y1="181.26" x2="122.466" y2="172.508"/>
			
				<line fill="#FFFFFF" stroke="#065DA8" stroke-width="2.7486" stroke-miterlimit="10" x1="118.553" y1="147.023" x2="133.619" y2="157.529"/>
			
				<line fill="#FFFFFF" stroke="#065DA8" stroke-width="2.7486" stroke-miterlimit="10" x1="112.873" y1="123.171" x2="119.938" y2="128.099"/>
			
				<line fill="#FFFFFF" stroke="#065DA8" stroke-width="2.7486" stroke-miterlimit="10" x1="124.732" y1="111.436" x2="136.878" y2="98.836"/>
		</g>
	</g>
</g>
</svg>
