<?xml version="1.0" encoding="utf-8"?>
<!-- Generator: Adobe Illustrator 16.0.0, SVG Export Plug-In . SVG Version: 6.00 Build 0)  -->
<!DOCTYPE svg PUBLIC "-//W3C//DTD SVG 1.1//EN" "http://www.w3.org/Graphics/SVG/1.1/DTD/svg11.dtd">
<svg version="1.1" xmlns="http://www.w3.org/2000/svg" xmlns:xlink="http://www.w3.org/1999/xlink" x="0px" y="0px"
	 width="284.985px" height="272.654px" viewBox="0 0 284.985 272.654" enable-background="new 0 0 284.985 272.654"
	 xml:space="preserve">
<g id="Layer_1">
	<circle fill="#005CA8" cx="143.033" cy="135.958" r="133.302"/>
</g>
<g id="Layer_2">
	<g>
		<path fill="none" stroke="#FFFFFF" stroke-width="4.1586" stroke-miterlimit="10" d="M162.937,112.959
			c3.073-6.368,4.82-13.507,4.82-21.061c0-18.015-9.812-33.715-24.359-42.146c-14.538,8.431-24.346,24.131-24.346,42.146
			c0,7.554,1.747,14.693,4.82,21.061c-3.074,6.384-4.82,13.516-4.82,21.078c0,7.553,1.747,14.693,4.82,21.069
			c-3.074,6.376-4.82,13.516-4.82,21.07c0,18.013,9.808,33.705,24.346,42.134c14.548-8.43,24.359-24.121,24.359-42.134
			c0-7.554-1.747-14.693-4.82-21.07c3.073-6.376,4.82-13.516,4.82-21.069C167.757,126.475,166.01,119.343,162.937,112.959z"/>
		<circle fill="#FFFFFF" cx="143.404" cy="88.593" r="16.312"/>
		<path fill="#FFFFFF" d="M159.716,134.037c0,9.008-7.307,16.309-16.313,16.309c-9.008,0-16.31-7.301-16.31-16.309
			c0-9.016,7.302-16.317,16.31-16.317C152.409,117.719,159.716,125.021,159.716,134.037z"/>
		<path fill="#FFFFFF" d="M159.716,179.471c0,9.015-7.307,16.317-16.313,16.317c-9.008,0-16.31-7.303-16.31-16.317
			c0-9.006,7.302-16.308,16.31-16.308C152.409,163.163,159.716,170.465,159.716,179.471z"/>
	</g>
</g>
</svg>
