<?xml version="1.0" encoding="utf-8"?>
<!-- Generator: Adobe Illustrator 16.0.0, SVG Export Plug-In . SVG Version: 6.00 Build 0)  -->
<!DOCTYPE svg PUBLIC "-//W3C//DTD SVG 1.1//EN" "http://www.w3.org/Graphics/SVG/1.1/DTD/svg11.dtd">
<svg version="1.1" xmlns="http://www.w3.org/2000/svg" xmlns:xlink="http://www.w3.org/1999/xlink" x="0px" y="0px"
	 width="284.985px" height="272.654px" viewBox="0 0 284.985 272.654" enable-background="new 0 0 284.985 272.654"
	 xml:space="preserve">
<g id="Layer_1">
	<circle fill="#005CA8" cx="143.033" cy="135.958" r="133.302"/>
</g>
<g id="Layer_2">
	<g>
		
			<path fill="#FFFFFF" stroke="#065DA8" stroke-width="3.393" stroke-linecap="round" stroke-linejoin="round" stroke-miterlimit="10" d="
			M203.7,126.782c0,20.477-16.6,37.075-37.07,37.075h-10.749c-20.478,0-37.074-16.598-37.074-37.075l0,0
			c0-20.477,16.597-37.074,37.074-37.074h10.749C187.101,89.708,203.7,106.305,203.7,126.782L203.7,126.782z"/>
		
			<path fill="#FFFFFF" stroke="#065DA8" stroke-width="3.393" stroke-linecap="round" stroke-linejoin="round" stroke-miterlimit="10" d="
			M172.677,95.738c0,3.33-4.474,6.03-9.977,6.03h-2.89c-5.514,0-9.977-2.701-9.977-6.03l0,0c0-3.33,4.463-6.031,9.977-6.031h2.89
			C168.203,89.708,172.677,92.408,172.677,95.738L172.677,95.738z"/>
	</g>
	<g>
		
			<path fill="#FFFFFF" stroke="#065DA8" stroke-width="3.393" stroke-linecap="round" stroke-linejoin="round" stroke-miterlimit="10" d="
			M167.26,144.323c0,20.478-16.601,37.07-37.075,37.07h-10.742c-20.483,0-37.077-16.593-37.077-37.07l0,0
			c0-20.477,16.594-37.074,37.077-37.074h10.742C150.659,107.249,167.26,123.846,167.26,144.323L167.26,144.323z"/>
		
			<path fill="#FFFFFF" stroke="#065DA8" stroke-width="3.393" stroke-linecap="round" stroke-linejoin="round" stroke-miterlimit="10" d="
			M136.232,113.279c0,3.33-4.471,6.031-9.978,6.031h-2.889c-5.507,0-9.971-2.701-9.971-6.031l0,0c0-3.333,4.464-6.03,9.971-6.03
			h2.889C131.762,107.249,136.232,109.946,136.232,113.279L136.232,113.279z"/>
	</g>
</g>
</svg>
