<?xml version="1.0" encoding="utf-8"?>
<!-- Generator: Adobe Illustrator 16.0.0, SVG Export Plug-In . SVG Version: 6.00 Build 0)  -->
<!DOCTYPE svg PUBLIC "-//W3C//DTD SVG 1.1//EN" "http://www.w3.org/Graphics/SVG/1.1/DTD/svg11.dtd">
<svg version="1.1" id="Layer_1" xmlns="http://www.w3.org/2000/svg" xmlns:xlink="http://www.w3.org/1999/xlink" x="0px" y="0px"
	 width="735.688px" height="800px" viewBox="0 0 735.688 800" enable-background="new 0 0 735.688 800" xml:space="preserve">
<g>
	<path fill="#FFFFFF" d="M129.582,768.724l65.525-132.707h1.658l65.523,132.707h-29.692l-13.105-26.542h-47.277l-13.104,26.542
		H129.582z M185.319,715.641h21.067l-10.451-21.235L185.319,715.641z"/>
	<path fill="#FFFFFF" d="M275.559,768.724V636.017h53.083c5.417,0,10.559,1.055,15.428,3.153c4.863,2.103,9.094,4.949,12.689,8.54
		c3.593,3.594,6.441,7.827,8.542,12.69c2.101,4.868,3.153,10.009,3.153,15.429c0,7.632-1.936,14.543-5.805,20.734
		c-3.873,6.194-8.958,10.949-15.262,14.265l24.219,57.896h-28.697l-22.229-53.083H302.1v53.083H275.559z M302.1,689.101h26.542
		c3.65,0,6.772-1.301,9.373-3.901c2.598-2.596,3.898-5.721,3.898-9.37s-1.301-6.774-3.898-9.374c-2.6-2.596-5.723-3.896-9.373-3.896
		H302.1V689.101z M342.908,768.724h28.697l0.165,0.164L342.908,768.724z"/>
	<path fill="#FFFFFF" d="M385.041,768.724V636.017h53.082c5.416,0,10.561,1.055,15.428,3.153c4.864,2.103,9.097,4.949,12.691,8.54
		c3.591,3.594,6.438,7.827,8.541,12.69c2.102,4.868,3.151,10.009,3.151,15.429c0,5.529-1.05,10.698-3.151,15.51
		c-2.104,4.81-4.95,9.016-8.541,12.605c-3.595,3.595-7.827,6.446-12.691,8.544c-4.867,2.104-10.012,3.152-15.428,3.152h-26.541
		v53.083H385.041z M411.582,689.101h26.541c3.649,0,6.77-1.301,9.371-3.901c2.6-2.596,3.899-5.721,3.899-9.37
		s-1.3-6.774-3.899-9.374c-2.602-2.596-5.722-3.896-9.371-3.896h-26.541V689.101z"/>
	<path fill="#FFFFFF" d="M456.704,768.724l65.526-132.707h1.656l65.522,132.707h-29.689l-13.109-26.542h-47.276l-13.105,26.542
		H456.704z M512.44,715.641h21.067l-10.451-21.235L512.44,715.641z"/>
</g>
<g>
	<polygon fill="#FFFFFF" points="365.847,162.427 575.633,364.554 677.643,258.672 467.863,56.549 	"/>
	<path fill="#FFFFFF" d="M263.834,56.549c56.34,58.472,55.05,151.126-2.881,206.939c-57.923,55.817-150.562,53.66-206.903-4.816
		C-2.29,200.198-1,107.546,56.926,51.732C114.864-4.083,207.492-1.927,263.834,56.549z"/>
	
		<rect x="64.291" y="137.035" transform="matrix(0.7201 -0.6938 0.6938 0.7201 -87.3292 204.5984)" fill="#FFFFFF" width="291.315" height="147.029"/>
	<path fill="#FFFFFF" d="M467.863,56.549c-56.344,58.472-55.056,151.126,2.878,206.939c57.923,55.817,150.562,53.66,206.902-4.816
		c56.342-58.475,55.053-151.126-2.877-206.94C616.834-4.083,524.2-1.927,467.863,56.549z"/>
</g>
<circle fill="#FFFFFF" cx="365.974" cy="233.987" r="23.304"/>
<circle fill="#FFFFFF" cx="292.664" cy="307.298" r="23.304"/>
<path fill="#FFFFFF" d="M236.34,363.625c9.1,9.101,9.1,23.855,0,32.96c-9.103,9.103-23.859,9.103-32.96,0
	c-9.101-9.105-9.103-23.859,0-32.96C212.481,354.525,227.237,354.525,236.34,363.625z"/>
<circle fill="#FFFFFF" cx="439.286" cy="307.298" r="23.303"/>
<circle fill="#FFFFFF" cx="365.974" cy="380.61" r="23.304"/>
<circle fill="#FFFFFF" cx="293.169" cy="453.422" r="23.305"/>
<path fill="#FFFFFF" d="M528.315,363.88c9.101,9.096,9.101,23.855,0,32.955c-9.101,9.103-23.854,9.103-32.955,0
	c-9.101-9.1-9.101-23.855,0-32.955C504.46,354.777,519.214,354.777,528.315,363.88z"/>
<path fill="#FFFFFF" d="M455.004,437.192c9.1,9.102,9.1,23.859,0,32.96c-9.102,9.101-23.855,9.101-32.956,0s-9.101-23.854,0-32.96
	C431.149,428.093,445.903,428.093,455.004,437.192z"/>
<path fill="#FFFFFF" d="M382.201,510c9.1,9.1,9.1,23.858,0,32.954c-9.101,9.108-23.857,9.105-32.955,0
	c-9.104-9.096-9.106-23.854,0-32.954C358.344,500.898,373.101,500.898,382.201,510z"/>
</svg>
