<?xml version="1.0" encoding="utf-8"?>
<!-- Generator: Adobe Illustrator 16.0.0, SVG Export Plug-In . SVG Version: 6.00 Build 0)  -->
<!DOCTYPE svg PUBLIC "-//W3C//DTD SVG 1.1//EN" "http://www.w3.org/Graphics/SVG/1.1/DTD/svg11.dtd">
<svg version="1.1" id="Layer_1" xmlns="http://www.w3.org/2000/svg" xmlns:xlink="http://www.w3.org/1999/xlink" x="0px" y="0px"
	 width="1280px" height="800px" viewBox="0 0 1280 800" enable-background="new 0 0 1280 800" xml:space="preserve">
<g>
	
		<rect x="504.658" y="211.514" transform="matrix(-0.7201 -0.6938 0.6938 -0.7201 835.2144 843.8477)" fill="#FFFFFF" width="166.281" height="83.921"/>
	<path fill="#FFFFFF" d="M440.583,165.573c32.166,33.374,31.429,86.26-1.642,118.119c-33.064,31.859-85.939,30.627-118.098-2.75
		c-32.159-33.377-31.422-86.262,1.642-118.119C355.557,130.963,408.431,132.194,440.583,165.573z"/>
	
		<rect x="326.69" y="211.511" transform="matrix(0.7201 -0.6939 0.6939 0.7201 -61.1689 355.306)" fill="#FFFFFF" width="166.279" height="83.925"/>
	<path fill="#FFFFFF" d="M557.042,165.573c-32.158,33.374-31.422,86.26,1.643,118.119c33.064,31.859,85.938,30.627,118.098-2.75
		c32.158-33.377,31.422-86.262-1.643-118.119C642.075,130.963,589.201,132.194,557.042,165.573z"/>
</g>
<path fill="#FFFFFF" d="M508.292,257.445c5.194,5.195,5.194,13.618,0,18.813c-5.2,5.195-13.616,5.193-18.81,0
	c-5.197-5.195-5.197-13.618,0-18.813C494.677,252.252,503.093,252.252,508.292,257.445z"/>
<circle fill="#FFFFFF" cx="457.041" cy="308.698" r="13.302"/>
<circle fill="#FFFFFF" cx="415.485" cy="350.255" r="13.303"/>
<path fill="#FFFFFF" d="M550.135,299.292c5.193,5.194,5.193,13.616,0,18.81c-5.193,5.197-13.613,5.197-18.813,0
	c-5.194-5.194-5.194-13.616,0-18.81C536.521,294.096,544.941,294.096,550.135,299.292z"/>
<path fill="#FFFFFF" d="M508.292,341.138c5.194,5.193,5.194,13.616,0,18.81c-5.2,5.197-13.616,5.197-18.81,0
	c-5.197-5.194-5.197-13.616,0-18.81C494.677,335.941,503.093,335.941,508.292,341.138z"/>
<circle fill="#FFFFFF" cx="457.331" cy="392.1" r="13.303"/>
<path fill="#FFFFFF" d="M591.547,340.991c5.193,5.194,5.193,13.62,0,18.813c-5.194,5.193-13.613,5.193-18.813,0
	c-5.193-5.194-5.193-13.616,0-18.813C577.934,335.798,586.353,335.798,591.547,340.991z"/>
<circle fill="#FFFFFF" cx="540.298" cy="392.243" r="13.303"/>
<path fill="#FFFFFF" d="M508.149,424.396c5.193,5.193,5.193,13.616,0,18.81c-5.2,5.193-13.62,5.193-18.813,0
	c-5.193-5.193-5.193-13.616,0-18.81C494.53,419.198,502.949,419.198,508.149,424.396z"/>
</svg>
