<?xml version="1.0" encoding="utf-8"?>
<!-- Generator: Adobe Illustrator 16.0.0, SVG Export Plug-In . SVG Version: 6.00 Build 0)  -->
<!DOCTYPE svg PUBLIC "-//W3C//DTD SVG 1.1//EN" "http://www.w3.org/Graphics/SVG/1.1/DTD/svg11.dtd">
<svg version="1.1" id="Layer_1" xmlns="http://www.w3.org/2000/svg" xmlns:xlink="http://www.w3.org/1999/xlink" x="0px" y="0px"
	 width="360px" height="640px" viewBox="0 0 1280 800" enable-background="new 0 0 1280 800" xml:space="preserve">
<g>
	
		<rect x="641.752" y="376.487" transform="matrix(-0.7201 -0.6938 0.6938 -0.7201 876.8062 1131.8054)" fill="#FFFFFF" width="49.838" height="25.153"/>
	
		<ellipse transform="matrix(0.7201 -0.6938 0.6938 0.7201 -94.4534 525.8522)" fill="#FFFFFF" cx="604.604" cy="380.008" rx="24.918" ry="25.153"/>
	
		<rect x="588.411" y="376.487" transform="matrix(0.7201 -0.6939 0.6939 0.7201 -98.2916 534.4567)" fill="#FFFFFF" width="49.838" height="25.154"/>
	
		<ellipse transform="matrix(-0.7201 -0.6938 0.6938 -0.7201 898.1053 1122.2803)" fill="#FFFFFF" cx="675.397" cy="380.008" rx="24.918" ry="25.153"/>
</g>
<circle fill="#FFFFFF" cx="640.023" cy="393.074" r="3.987"/>
<circle fill="#FFFFFF" cx="627.48" cy="405.616" r="3.987"/>
<circle fill="#FFFFFF" cx="615.025" cy="418.071" r="3.987"/>
<circle fill="#FFFFFF" cx="652.563" cy="405.616" r="3.987"/>
<circle fill="#FFFFFF" cx="640.023" cy="418.158" r="3.986"/>
<circle fill="#FFFFFF" cx="627.567" cy="430.613" r="3.987"/>
<circle fill="#FFFFFF" cx="664.976" cy="418.114" r="3.987"/>
<circle fill="#FFFFFF" cx="652.435" cy="430.656" r="3.987"/>
<circle fill="#FFFFFF" cx="639.979" cy="443.112" r="3.987"/>
</svg>
